# xmcd CD database file
#
# Track frame offsets:
#	183
#	69483
#	122708
#	164520
#
# Disc length: 2874 seconds
#
# Revision: 0
# Processed by: cddbd v1.5.2PL0 Copyright (c) Steve Scherf et al.
# Submitted via: CDex 1.51
#
DISCID=320b3804
DTITLE=Art Pepper - A Night In Tunisia
DYEAR=1977
DGENRE=Jazz
TTITLE0=Mr. Yohe and The Golden Gate Bridge
TTITLE1=The Trip
TTITLE2=Lost Life
TTITLE3=A Night In Tunisia
EXTD=YEAR: 1977
EXTT0=
EXTT1=
EXTT2=
EXTT3=
PLAYORDER=
